PathFileType	4	(X/Y/Z)	C:\Users\°ÂÌØÂü\Desktop\20210112\bx_n_0_502-Unnamed.trc
DataRate	CameraRate	NumFrames	NumMarkers	Units	OrigDataRate	OrigDataStartFrame	OrigNumFrames
50.00	50.00	       7	0	mm	50.00	236	       376
Frame#	Time	
		

236	4.700	-668.91962	218.60342	1054.58838	-754.85504	268.61655	876.59930	-657.32477	-22.76878	806.49200	-655.64197	200.17612	797.29425	-748.14301	260.41177	743.32214	-770.81805	243.08472	639.02924	-761.20837	236.85063	574.20337	-700.13165	9.29398	522.52856	-709.26471	190.26144	536.79327	-791.64044	253.66951	498.01431	-544.29529	87.62841	1302.43298	-641.32605	-61.72784	161.54105	-763.96442	225.12872	204.31181	-599.33350	-64.71743	156.32361	-882.69714	296.13705	144.67325	-676.97150	56.36442	160.28410	-600.70123	36.79701	168.48122	-546.70209	-12.01288	161.50972	-517.83282	-72.87903	143.14296	-590.55695	183.65085	174.26596	-640.91449	273.74152	160.22902	-602.10779	273.98566	160.02779	-548.61774	211.75496	165.04282	-528.24188	304.07635	146.21542	-555.23395	94.23114	1816.04358	-588.39099	267.16809	1511.46741	-737.58942	65.48437	572.22748	-797.32080	181.46959	182.66328	-562.53186	-93.63435	1509.07678	-794.33234	32.13533	174.04457	-864.40076	75.51117	1083.72595	-783.37280	-57.41560	482.61938				-876.10693	-78.99421	141.26549	-743.19983	-85.99306	872.41553	-747.70416	-77.11003	754.62958	-748.58002	-46.02538	612.57275	-750.53278	-42.80046	565.86603	-722.22321	144.15057	218.66077				-667.46863	-25.37816	1040.29456				-736.64276	130.65912	572.66956	-726.92535	67.40458	218.33328	
237	4.720	-667.40723	218.91774	1055.39319	-753.20538	268.94818	876.89130	-655.19763	-22.22563	806.42828	-653.97601	200.38000	796.90424	-746.33307	260.43741	742.99396	-769.61163	242.96492	638.80701	-760.58667	237.08594	574.31146	-698.70111	9.60660	523.14929	-708.47479	190.20929	536.54095	-790.88556	253.87189	498.19971	-545.15668	88.28738	1304.89453	-641.44055	-61.58445	161.52419	-763.84137	225.21468	204.03252	-599.33350	-64.71743	156.32361	-882.56165	296.02393	144.54869	-677.17255	56.89436	160.46509	-601.10687	36.78946	167.97942	-546.53259	-11.84167	161.58215	-517.91980	-73.01032	143.17534	-590.45331	183.69322	174.34537	-640.83008	273.81903	160.01581	-602.14331	274.05820	160.02524	-548.46826	211.77644	165.05907	-528.23993	304.28061	146.44409	-561.52777	94.24784	1818.61182	-592.24939	267.69589	1513.70703	-735.57703	65.51382	572.06183	-797.23645	181.53761	182.66075	-565.90106	-93.10706	1511.19788	-794.39771	32.00264	174.02832	-862.26282	75.79931	1082.95874	-782.21942	-57.35225	482.58075	-758.38428	-23.82370	205.38205	-876.14905	-78.79788	141.54057	-741.09045	-85.99003	872.44208	-745.75525	-76.21809	754.40466	-746.74915	-45.99752	612.69153	-749.35675	-42.16918	565.76288	-722.00037	143.83281	218.72908	-679.59509	156.08977	159.59547	-665.57391	-24.49919	1040.94397				-735.56714	130.47656	573.19037	-726.82373	67.27767	218.43919	
238	4.740	-665.63885	219.26990	1055.81641	-751.55609	268.88126	876.46692	-653.39069	-21.86824	806.65161	-652.20813	200.95177	797.01367	-745.22803	260.16702	743.07648	-768.29285	243.52681	639.38123	-759.16443	237.55563	574.54541	-697.95270	9.76115	522.50934	-707.35431	190.68559	536.53070	-789.94128	253.65428	497.88074	-546.41284	88.96494	1307.47192	-641.53815	-61.52809	161.45927	-763.54291	224.71523	203.84781	-599.33350	-64.71743	156.32361	-882.62036	295.99500	144.51753	-677.27704	56.91145	160.31421	-600.98151	37.10868	167.91493	-546.60852	-11.89970	161.62437	-517.92590	-72.87240	142.99782	-590.29211	183.64197	174.29051	-640.94244	273.90955	160.01086	-602.09064	274.04187	159.94160	-548.32959	211.79283	165.19800	-528.27869	304.45233	146.52721	-567.72180	94.25234	1821.22363	-596.22925	268.12076	1515.73633	-734.49847	65.65802	572.38037	-797.18634	181.53876	182.76100	-569.66534	-92.75066	1513.45020	-794.37903	32.10344	173.99976	-860.70715	75.76054	1082.40125	-781.18903	-56.84870	482.95520	-758.22772	-23.95860	205.41347	-876.03900	-78.89625	141.35916	-738.53992	-85.93343	873.07654	-743.39838	-76.26984	754.57361	-745.23462	-45.90908	612.65906	-748.10370	-42.41001	565.99854	-722.02887	143.63264	218.61113				-663.21515	-24.30656	1041.31982				-734.36243	130.60547	573.28156	-726.68030	67.56927	218.03752	
239	4.760	-664.12061	220.08408	1056.39551	-749.59161	269.13437	876.44873	-650.85699	-21.33908	806.33118	-650.66107	201.66029	797.05920	-743.56201	260.46835	743.48395	-766.99921	243.52002	639.40674	-758.09692	237.31500	574.42932	-696.36713	9.84854	522.73657	-706.58844	190.51204	536.39441	-789.16986	253.78584	498.42099	-547.71924	89.71786	1309.90710	-641.46478	-61.49895	161.59862	-763.75677	224.91135	204.15582	-599.33917	-64.62917	156.44423	-882.75012	296.13828	144.55431	-677.27747	56.74818	159.82500	-601.21979	36.94922	167.74260	-546.49274	-11.90300	161.57289	-517.96869	-73.12807	143.12250	-589.87885	183.49672	174.24879	-640.83008	273.81903	160.01581	-602.10052	274.22568	159.91809	-548.37671	211.92009	165.20633	-528.15442	303.96283	146.35419	-573.97217	94.22052	1823.69250	-600.11438	268.33252	1518.05688	-733.42163	65.95854	572.33344	-797.01569	181.47726	182.80298	-573.26868	-92.03742	1515.47437	-794.34247	31.91362	173.97064	-859.10175	76.15330	1081.97485	-779.86908	-56.68782	483.27048	-758.22772	-23.95860	205.41347	-876.31079	-79.01691	141.29144	-736.04260	-85.46791	872.94806	-741.41534	-75.43275	754.56512	-743.73895	-45.80264	612.72375	-745.79529	-42.31641	565.99512	-721.60931	143.72697	218.74889				-660.88074	-23.52893	1041.78308				-733.14972	130.99771	573.34534	-726.13977	68.39646	218.24648	
240	4.780	-662.55682	220.49548	1056.82935	-747.91473	269.37970	876.53815	-648.49939	-20.66572	806.69391	-648.67664	202.30804	797.08246	-742.12891	260.53607	743.49121	-766.09991	243.40240	639.49249	-757.21887	237.57170	574.67365	-695.66132	10.63358	522.29047	-705.21106	190.68629	536.67365	-788.43866	253.66435	498.41873	-548.89325	90.13122	1312.56384	-641.40906	-61.43355	161.62914	-763.61267	224.77583	204.09802	-599.33350	-64.71743	156.32361	-882.66272	295.98911	144.56929	-677.31122	56.84505	159.74409	-601.11072	37.05025	167.84113	-546.69281	-11.98915	161.64012	-517.95569	-72.80466	142.91631	-590.29144	184.02188	174.39603	-641.02905	274.00180	160.06024	-602.17004	274.12115	159.89003	-548.19202	211.87929	165.27031	-528.21887	304.07733	146.44493	-579.95697	94.67246	1825.95837	-604.07422	268.78973	1520.24780	-731.81238	66.14127	572.39740	-797.09546	181.15773	182.99301	-576.76050	-91.24809	1517.07959	-794.32751	32.06931	173.98955	-857.36719	76.46887	1081.34534	-779.09662	-56.67879	483.44879	-758.22772	-23.95860	205.41347	-876.33990	-78.88496	141.49979	-733.32269	-84.88520	873.08685	-739.28241	-75.16727	754.99066	-742.03772	-44.86107	612.55774	-744.21167	-42.37178	566.84784	-721.67712	143.61742	218.61449				-658.81042	-23.30352	1042.74536				-732.05432	131.52135	572.96429	-725.82300	68.25668	218.30750	
241	4.800	-661.15277	221.20570	1057.41370	-746.21722	269.76752	876.48230	-646.16833	-20.28878	806.45288	-646.93011	202.57425	796.82220	-740.87561	261.26065	743.58545	-764.88495	243.70256	639.48370	-756.42725	238.01161	574.71558	-693.93494	10.60010	522.50537	-704.40863	191.15858	536.61017	-787.56085	254.01683	498.77997	-550.02869	90.54082	1315.21204	-641.40906	-61.43355	161.62914	-763.57019	224.86194	204.11589	-599.45062	-64.51512	156.39832	-882.70691	296.05905	144.52444	-677.42651	56.81872	159.60159	-601.08081	37.19579	167.83289	-546.61151	-12.02756	161.60536	-518.00769	-72.99992	143.10075	-590.24005	183.85350	174.45134	-640.77313	274.13248	160.09242	-602.13770	274.29437	159.83032	-548.12628	211.90352	165.20981	-528.30536	304.04300	146.37025	-585.82404	94.63881	1828.39905	-607.73956	269.02780	1522.26184	-730.87201	66.63882	572.63885	-796.78278	181.32611	182.93127	-580.82745	-91.29828	1519.14832	-794.36206	31.96450	174.03862	-855.76611	76.58556	1081.10474	-777.76141	-55.99644	483.36990	-758.22839	-23.71311	205.53142	-876.12219	-78.89765	141.41621	-730.70099	-84.62184	873.55548	-737.02942	-74.70419	755.16949	-740.86884	-44.83181	612.96643	-742.33350	-42.38785	567.28516	-721.67712	143.61742	218.61449	-679.51831	155.84764	159.30649	-656.37183	-22.55172	1043.42236				-730.80920	131.83818	573.21960	-725.77386	68.30145	218.12663	
242	4.820	-659.15198	221.73535	1057.99072	-744.50183	269.79645	876.19879	-644.11859	-19.43826	806.47644	-645.08069	203.25574	796.93231	-739.18378	261.46457	743.59302	-763.38251	243.90138	639.62341	-755.27972	238.08867	574.68756	-693.00085	10.87203	522.08893	-703.91180	191.21693	536.08557	-786.88824	254.17943	498.76135	-551.44995	91.02940	1317.46802	-641.57471	-61.36788	161.59933	-763.45428	224.87006	204.26141	-599.40118	-64.77949	156.64626	-882.60834	296.06894	144.52896	-677.31122	56.84505	159.74409	-601.09058	37.00765	167.81642	-546.80347	-12.01452	161.66069	-517.91980	-73.01032	143.17534	-590.30383	184.24860	174.18607	-640.78101	274.10422	159.95551	-602.21710	274.37363	159.77875	-548.12628	211.90352	165.20981	-528.23615	304.02277	146.32814	-591.87457	94.87571	1830.65039	-611.86255	269.32166	1523.91943	-729.25342	66.84252	572.74396	-796.88983	181.33678	183.13884	-584.54028	-90.72630	1521.17456	-794.42084	32.06678	174.08585	-853.91779	76.60970	1080.37354	-776.19348	-55.81498	483.78189	-758.22839	-23.71311	205.53142	-876.14905	-78.79788	141.54057	-728.17828	-84.14263	873.27740	-734.67419	-74.53788	755.10181	-739.05048	-44.20547	612.67157	-741.01971	-42.00016	567.21320	-720.96405	143.63600	218.33783	-679.31342	155.88620	159.21478	-654.22894	-22.37908	1044.26001				-729.87946	131.41960	573.85077	-725.79163	68.43520	217.95065	
